<?xml version="1.0" encoding="UTF-8"?>
<svg id="Camada_1" data-name="Camada 1" xmlns="http://www.w3.org/2000/svg" viewBox="0 0 918.3 671.76">
  <defs>
    <style>
      .cls-1 {
        stroke: rgba(54, 80, 125, .99);
        stroke-linecap: round;
        stroke-linejoin: round;
      }

      .cls-1, .cls-2, .cls-3, .cls-4 {
        fill: none;
      }

      .cls-1, .cls-2, .cls-5 {
        stroke-width: 7px;
      }

      .cls-2, .cls-3, .cls-4, .cls-5 {
        stroke: #36507d;
        stroke-miterlimit: 10;
      }

      .cls-3 {
        stroke-width: 9px;
      }

      .cls-4 {
        stroke-width: 6px;
      }

      .cls-6 {
        fill: #36507d;
        font-family: Lemondrop-Bold, Lemondrop;
        font-size: 62px;
      }
    </style>
  </defs>
  <g>
    <line class="cls-5" x1="542.44" y1="402.15" x2="522.88" y2="397.38"/>
    <line class="cls-5" x1="514.88" y1="335.95" x2="555.88" y2="335.95"/>
    <g>
      <path class="cls-3" d="M183.92,332.58c3.77-189.5,295.5-194.09,304.96-5.2"/>
      <path class="cls-3" d="M440.24,446.09c-52.52,52.23-151.38,52.8-205.36,2.3"/>
      <path class="cls-2" d="M398.14,320.54c-1.54-26.9,44.44-27.63,45.98-.72"/>
      <path class="cls-2" d="M222.14,323.54c-1.54-26.9,44.44-27.63,45.98-.72"/>
      <path class="cls-4" d="M196.12,366.38c59.76-46.22,110.37,60.62,35.05,73.21"/>
      <path class="cls-4" d="M473.79,364.2c-56.25-39.41-105.32,57.31-37.04,74.61"/>
      <g>
        <path class="cls-4" d="M356.38,323.88c-.16-114.08,128.87-97.17,131,7"/>
        <path class="cls-4" d="M356.28,323.62c1.08,28.23-40.64,27.46-41.31,.49"/>
        <path class="cls-4" d="M314.97,326.15c-4.4-116.69-126.58-101.75-129.59,8.73"/>
      </g>
      <path class="cls-2" d="M298.11,364.95c-.94,59.9,76.39,61.12,77.33,1.22"/>
    </g>
    <line class="cls-5" x1="336.45" y1="116.38" x2="336.45" y2="185.88"/>
    <line class="cls-5" x1="302.38" y1="118.93" x2="313.25" y2="187.58"/>
    <line class="cls-5" x1="269.13" y1="126.79" x2="290.61" y2="192.89"/>
    <line class="cls-5" x1="237.52" y1="139.74" x2="269.07" y2="201.67"/>
    <line class="cls-5" x1="208.32" y1="157.48" x2="249.17" y2="213.71"/>
    <line class="cls-5" x1="182.26" y1="179.57" x2="231.41" y2="228.72"/>
    <line class="cls-5" x1="159.98" y1="205.47" x2="216.2" y2="246.32"/>
    <line class="cls-5" x1="128.82" y1="266.05" x2="194.92" y2="287.52"/>
    <line class="cls-5" x1="120.73" y1="299.24" x2="189.37" y2="310.11"/>
    <line class="cls-5" x1="181.11" y1="487.47" x2="199.88" y2="468.38"/>
    <line class="cls-5" x1="207.01" y1="509.75" x2="247.86" y2="453.53"/>
    <line class="cls-5" x1="236.07" y1="527.71" x2="267.62" y2="465.79"/>
    <line class="cls-5" x1="267.58" y1="540.9" x2="289.06" y2="474.8"/>
    <line class="cls-5" x1="300.77" y1="549" x2="311.64" y2="480.36"/>
    <line class="cls-5" x1="334.82" y1="551.81" x2="334.82" y2="482.31"/>
    <line class="cls-5" x1="368.89" y1="549.26" x2="358.02" y2="480.61"/>
    <line class="cls-5" x1="402.14" y1="541.41" x2="380.66" y2="475.31"/>
    <line class="cls-5" x1="433.75" y1="528.45" x2="402.2" y2="466.52"/>
    <line class="cls-5" x1="462.94" y1="510.71" x2="422.09" y2="454.48"/>
    <line class="cls-5" x1="489.01" y1="488.62" x2="454.88" y2="457.38"/>
    <line class="cls-5" x1="516.1" y1="363.39" x2="509.88" y2="362.38"/>
    <line class="cls-5" x1="517.26" y1="363.58" x2="516.1" y2="363.39"/>
    <line class="cls-5" x1="550.54" y1="368.96" x2="544.47" y2="367.98"/>
    <line class="cls-5" x1="302.11" y1="119.07" x2="312.98" y2="187.72"/>
    <line class="cls-5" x1="268.61" y1="127.1" x2="290.09" y2="193.2"/>
    <line class="cls-5" x1="236.79" y1="140.28" x2="268.34" y2="202.2"/>
    <line class="cls-5" x1="207.41" y1="158.26" x2="248.27" y2="214.49"/>
    <line class="cls-5" x1="181.22" y1="180.63" x2="230.36" y2="229.77"/>
    <line class="cls-5" x1="158.84" y1="206.81" x2="215.07" y2="247.66"/>
    <line class="cls-5" x1="140.83" y1="236.17" x2="202.76" y2="267.73"/>
    <line class="cls-5" x1="116.88" y1="335.82" x2="155.88" y2="335.82"/>
    <line class="cls-5" x1="154.14" y1="364.11" x2="163.88" y2="362.38"/>
    <line class="cls-5" x1="127.6" y1="403.65" x2="149.88" y2="397.38"/>
    <line class="cls-5" x1="553.19" y1="301.61" x2="484.54" y2="312.48"/>
    <line class="cls-5" x1="545.16" y1="268.11" x2="479.06" y2="289.59"/>
    <line class="cls-5" x1="531.99" y1="236.29" x2="470.06" y2="267.84"/>
    <line class="cls-5" x1="514" y1="206.91" x2="457.77" y2="247.77"/>
    <line class="cls-5" x1="491.64" y1="180.72" x2="442.49" y2="229.86"/>
    <line class="cls-5" x1="465.45" y1="158.34" x2="424.6" y2="214.57"/>
    <line class="cls-5" x1="436.09" y1="140.33" x2="404.54" y2="202.26"/>
    <line class="cls-5" x1="404.27" y1="127.14" x2="382.79" y2="193.24"/>
    <line class="cls-5" x1="370.78" y1="119.09" x2="359.91" y2="187.74"/>
    <g id="Layer_3_Copy" data-name="Layer 3 Copy">
      <path class="cls-1" d="M453.92,390.03c-7.08,11.35-17.21,27.32-16.47,41.21-1.88-14.3,17.61-43.55,20.67-47.01-8.84,13.21-20.77,30.39-20.63,45.92-.63-13.44,10.9-31.93,17.83-42.14-5.68,7.95-13.36,21.75-16.45,31.09-4.17,21.54-2.18,42.55,25.33,38.57-29.07,3.41-28.26-17.59-25.97-36.07,4.2-11.93,12.72-28.7,20.76-38.47-10.87,15.18-21.88,30.86-21.6,50.49-.77-14.64,6.44-27.05,14.07-39.84-8.64,14.3-11.52,22.23-12.65,25.5,4.88-13.55,14.45-29.5,23.65-40.54-15.18,18.87-28.67,42.91-24.79,63.27,.84,5.11,3.13,10.97,8.01,13.43-5.49-2.88-7.76-9.94-8.25-16.18-3.05-20.95,13.76-47.14,25.03-60.52-10.26,12.63-17.98,25.68-23.1,38.99-4.79,22.48-3.48,43.68,24.84,39.94-28.84,4.49-29.48-20.11-24.79-40.22,3.55-10.57,15.52-29.68,19.75-34.53"/>
      <path class="cls-1" d="M484.25,377.2c-7.92,.77-18.62-1.36-22.16,2.03,1.16-2.93,27.55-1.54,33.14-1.72,17.03,.64,28.68,10.91,17.08,24.6-1.86,1.35-5.91,5.03-8.3,5.26-9.78,.21-15.3-5.9-22.13-9.73,6.32,4.3,14.52,10.12,21.26,9.83,7.04-.4,15.65-12.62,13.93-18.32-5.83-14.84-27.57-11.3-40.79-11.86,21.44,.97,27.93-1.77,38.36,7.42,3.65,4.33,2.87,8.4,.76,12.79-9.05,17.48-24.58,7.11-33.53,.15,8.3,6.22,21.86,15.14,30.42,4.47,3.58-4.33,7.09-11.15,3.17-16.32-8.08-9.99-19.37-7.75-33.54-8.59-7.08,.48-18.33-.59-19.84,2.03"/>
      <path class="cls-1" d="M480.69,419.04l.1-.31"/>
      <path class="cls-1" d="M484.21,411.33c1.97-4.41-.44-11-2.41-13.89,4.97,8.68,3.21,15.74-2.44,23.75-.82,1.67-7.41,4.99-8.97,5.93,12.09-4.62,18.54-19.29,11.41-29.68,7.03,7.97-.17,22.05-4.13,25.54,0,0-7.28,4.14-7.28,4.14"/>
      <path class="cls-1" d="M479.33,438.64c.54-4.68-1.92-11.32-4.5-13.58,4.6,5,4.97,10.95,4.17,17.39-.6,4.73-3.91,7.86-7.11,10.95l6.25-7.73c1.71-8.55,1.92-15.14-3.31-20.61"/>
      <path class="cls-1" d="M474.03,465.48c-5.24-.81-10.95-4.4-14.45-7.3,9,9.23,26.29,9.06,36.32,5.67-11.54,4.12-27.61,2.84-36.32-5.67"/>
      <path class="cls-1" d="M493.4,433.88c-7.11,1.41-13.31-4.02-13.36-9.96l.15-2.97c-.31,27.5,36.6,4.37,42.28-7.54-.28,1.1-1.89,3.33-2.58,4.23,3.98-4.62,4.7-12.94,5.44-18.37"/>
      <path class="cls-1" d="M525.33,399.42c-2.81-2.26-8.17-3.79-8.91-4.01"/>
      <path class="cls-1" d="M529.13,423.79c-.98-2.64-4.02-4.94-7.91-7.46,16.38,9.15,8.71,27.68-.5,40.25-4.28,6.23-7.03,6.99-12.2,9.74-1.05,.3-3.18,.66-4.27,.62-4.03-.08-8.94-3.16-11.42-6.22-2.17-3.32-1.17-9.12-.83-12.82,2.06-7.37,11.27-16.3,17.19-21.51-4.68,4.53-15.57,13.91-17.22,21.74-3.27,11.72,5.59,21.82,18.06,17.68,14.58-7.09,31.66-38.86,11.2-49.49h0"/>
      <path class="cls-1" d="M474.6,361.93c5.32-13.37,18.98-58.71,39.07-49.64,1.38,.98,2.6,2.58,3.24,4.14,2.31,18.36-9.55,45.1-13.47,61.81,9.6-36.53,25.33-69.81,1.62-67.04-20.03,10.91-27.35,44.8-35.58,65.97"/>
      <path class="cls-1" d="M545.69,368.44c6.88-9.21,19.98-23.79,10.7-31.36-15.14-9.16-45.97,35.29-52.8,41.32"/>
      <path class="cls-1" d="M546.03,368.23c-5.47,7.01-20.39,22.12-26.38,28.13,10.34-10.41,18.02-17.61,26.04-27.92"/>
      <path class="cls-1" d="M521.65,357.86c9.09-7.77,23.04-29.37,36.34-19.41,5.79,9.61-6.83,21.8-11.96,29.78"/>
    </g>
    <g id="Layer_3_Copy-2" data-name="Layer 3 Copy">
      <path class="cls-1" d="M197.2,365.43c-5.04-15.66-24.26-66.93-41.74-47.24-3.05,16.25,1.83,22.17,12.88,63.04-3.93-16.75-15.78-43.42-13.47-61.81,.64-1.56,1.86-3.17,3.24-4.14,20.1-9.04,33.7,36.18,39.07,49.64"/>
      <path class="cls-1" d="M212.6,385.91c4.26,4.93,16.18,23.92,19.75,34.54,4.7,20.14,4.04,44.71-24.79,40.22,28.35,3.73,29.61-17.48,24.84-39.94-5.13-13.32-12.83-26.33-23.1-38.99,11.24,13.31,28.11,39.71,25.03,60.52-.5,6.24-2.76,13.29-8.25,16.18,4.88-2.46,7.17-8.32,8.01-13.43,3.87-20.42-9.59-44.35-24.79-63.27,9.19,11.03,18.77,26.99,23.65,40.54-1.12-3.24-4.02-11.22-12.65-25.5,7.65,12.83,14.83,25.16,14.07,39.84,.29-19.61-10.74-35.33-21.6-50.49,8.03,9.76,16.57,26.56,20.76,38.48,2.3,18.48,3.08,39.49-25.97,36.07,27.53,3.97,29.48-17.05,25.33-38.57-3.1-9.35-10.77-23.13-16.45-31.09,6.94,10.25,18.45,28.66,17.83,42.14,.15-15.51-11.81-32.74-20.63-45.92,3.12,3.58,22.5,32.61,20.67,47.01,.74-13.87-9.4-29.87-16.47-41.21"/>
      <path class="cls-1" d="M209.67,382.22c-1.44-2.63-12.81-1.55-19.84-2.03-14.18,.84-25.46-1.4-33.54,8.59-3.92,5.16-.41,11.98,3.17,16.32,8.57,10.68,22.12,1.75,30.42-4.47-9.01,6.99-24.45,17.33-33.53-.15-2.11-4.4-2.89-8.46,.76-12.79,10.42-9.19,16.94-6.45,38.36-7.42-13.23,.57-34.95-2.98-40.79,11.86-1.7,5.71,6.87,17.92,13.93,18.32,6.73,.29,14.96-5.53,21.26-9.83-6.87,3.85-12.31,9.92-22.12,9.73-2.36-.22-6.47-3.93-8.3-5.26-11.59-13.71,.05-23.96,17.08-24.6,5.65,.18,31.88-1.22,33.14,1.72-3.51-3.38-14.27-1.26-22.16-2.03"/>
      <path class="cls-1" d="M190.97,421.73l.1,.31"/>
      <path class="cls-1" d="M201.37,430.13l-7.28-4.14c-3.97-3.51-11.16-17.56-4.13-25.54-7.13,10.38-.68,25.08,11.41,29.68-1.6-.98-8.12-4.24-8.97-5.93-5.65-8.01-7.41-15.09-2.44-23.75-1.98,2.91-4.37,9.46-2.41,13.89"/>
      <path class="cls-1" d="M196.93,428.07c-5.23,5.46-5.02,12.07-3.31,20.61,0,0,6.25,7.73,6.25,7.73-3.2-3.09-6.51-6.24-7.1-10.95-.81-6.44-.43-12.4,4.17-17.39-2.59,2.28-5.03,8.87-4.5,13.58"/>
      <path class="cls-1" d="M212.19,461.18c-8.72,8.52-24.76,9.79-36.32,5.67,10.07,3.39,27.28,3.56,36.32-5.67-3.51,2.9-9.21,6.49-14.45,7.3"/>
      <path class="cls-1" d="M146.43,402.27c.75,5.43,1.47,13.74,5.44,18.37-.7-.91-2.29-3.12-2.58-4.23,5.68,11.91,42.6,35.04,42.28,7.54l.15,2.97c-.06,5.95-6.24,11.37-13.36,9.96"/>
      <path class="cls-1" d="M146.43,402.42l8.91-4.01c-.74,.22-6.1,1.75-8.91,4.01l4.63-2.7"/>
      <path class="cls-1" d="M150.55,419.33c-20.53,10.37-3.26,42.85,11.47,49.57,12.48,3.97,21.09-6.4,17.74-17.96-1.8-7.81-12.54-17.06-17.18-21.55,5.92,5.2,15.12,14.15,17.19,21.51,.32,3.71,1.34,9.48-.84,12.82-2.48,3.06-7.39,6.13-11.42,6.22-1.09,.03-3.22-.3-4.27-.62-5.17-2.78-7.91-3.49-12.2-9.74-9.22-12.56-16.87-31.1-.5-40.25-3.9,2.52-6.93,4.82-7.91,7.46"/>
      <path class="cls-1" d="M202.3,380.15c-1.09-3.24-2.98-8.75-5.1-14.72"/>
      <path class="cls-1" d="M124.42,369.35c8.83,11.53,16.52,18.8,27.69,30.01-8.84-9.77-47.44-44.23-38.34-57.91,13.3-9.95,27.24,11.63,36.34,19.41"/>
      <path class="cls-1" d="M124.09,368.93c.11,.14,.22,.28,.33,.42"/>
      <path class="cls-1" d="M152.73,363.78c-9.32-8.67-21.49-27.15-35.45-24.64-12.14,5.45,.03,20.82,6.81,29.78"/>
      <path class="cls-1" d="M168.17,381.4c-2.09-2.48-8.38-9.81-15.44-17.62"/>
    </g>
  </g>
  <text class="cls-6" transform="translate(186.45 99.84) rotate(-26.8)"><tspan x="0" y="0">d</tspan></text>
  <text class="cls-6" transform="translate(233.97 76.88) rotate(-19.02)"><tspan x="0" y="0">’</tspan></text>
  <text class="cls-6" transform="translate(253.66 70.13) rotate(-15.58)"><tspan x="0" y="0"> </tspan></text>
  <text class="cls-6" transform="translate(267.04 65.36) rotate(-9.18)"><tspan x="0" y="0">b</tspan></text>
  <text class="cls-6" transform="translate(313.21 56.96) rotate(1.92)"><tspan x="0" y="0">o</tspan></text>
  <text class="cls-6" transform="translate(375.28 59) rotate(14.23)"><tspan x="0" y="0">a</tspan></text>
  <text class="cls-6" transform="translate(431.71 74.72) rotate(21.75)"><tspan x="0" y="0"> </tspan></text>
  <text class="cls-6" transform="translate(445.42 80.18) rotate(24.81)"><tspan x="0" y="0"> </tspan></text>
  <text class="cls-6" transform="translate(458.76 84.96) rotate(31.73)"><tspan x="0" y="0">d</tspan></text>
  <text class="cls-6" transform="translate(503.15 113.5) rotate(39.44)"><tspan x="0" y="0">’</tspan></text>
  <text class="cls-6" transform="translate(519.22 126.76) rotate(42.84)"><tspan x="0" y="0"> </tspan></text>
  <text class="cls-6" transform="translate(530.31 135.69) rotate(49.16)"><tspan x="0" y="0">b</tspan></text>
  <text class="cls-6" transform="translate(561.7 170.54) rotate(60.34)"><tspan x="0" y="0">o</tspan></text>
  <text class="cls-6" transform="translate(592.44 224.48) rotate(72.72)"><tspan x="0" y="0">a</tspan></text>
  <text class="cls-6" transform="translate(608.53 280.8) rotate(80.23)"><tspan x="0" y="0"> </tspan></text>
  <text class="cls-6" transform="translate(611.05 295.34) rotate(83.27)"><tspan x="0" y="0"> </tspan></text>
  <text class="cls-6" transform="translate(614.32 309.05) rotate(90.93)"><tspan x="0" y="0">d</tspan></text>
  <text class="cls-6" transform="translate(612.93 362.01) rotate(97.77)"><tspan x="0" y="0">’</tspan></text>
  <text class="cls-6" transform="translate(610.07 382.64) rotate(101.2)"><tspan x="0" y="0"> </tspan></text>
  <text class="cls-6" transform="translate(608.31 396.73) rotate(107.6)"><tspan x="0" y="0">b</tspan></text>
  <text class="cls-6" transform="translate(595.04 441.71) rotate(118.87)"><tspan x="0" y="0">o</tspan></text>
  <text class="cls-6" transform="translate(565.07 496.1) rotate(131.15)"><tspan x="0" y="0">a</tspan></text>
  <text class="cls-6" transform="translate(525.5 539.32) rotate(138.58)"><tspan x="0" y="0"> </tspan></text>
  <text class="cls-6" transform="translate(514.44 549.1) rotate(141.6)"><tspan x="0" y="0"> </tspan></text>
  <text class="cls-6" transform="translate(502.87 558.29) rotate(144.64)"><tspan x="0" y="0"> </tspan></text>
  <text class="cls-6" transform="translate(492.09 567.48) rotate(151.53)"><tspan x="0" y="0">d</tspan></text>
  <text class="cls-6" transform="translate(445.27 591.81) rotate(159.3)"><tspan x="0" y="0">’</tspan></text>
  <text class="cls-6" transform="translate(425.77 599.14) rotate(162.75)"><tspan x="0" y="0"> </tspan></text>
  <text class="cls-6" transform="translate(412.54 604.3) rotate(169.15)"><tspan x="0" y="0">b</tspan></text>
  <text class="cls-6" transform="translate(366.6 614.4) rotate(-179.07)"><tspan x="0" y="0">o</tspan></text>
  <text class="cls-6" transform="translate(304.55 613.77) rotate(-167.45)"><tspan x="0" y="0">a</tspan></text>
  <text class="cls-6" transform="translate(247.67 599.71) rotate(-159.92)"><tspan x="0" y="0"> </tspan></text>
  <text class="cls-6" transform="translate(233.79 594.65) rotate(-156.86)"><tspan x="0" y="0"> </tspan></text>
  <text class="cls-6" transform="translate(220.22 588.87) rotate(-153.8)"><tspan x="0" y="0"> </tspan></text>
  <text class="cls-6" transform="translate(207.02 583.77) rotate(-146.9)"><tspan x="0" y="0">d</tspan></text>
  <text class="cls-6" transform="translate(163.32 554.18) rotate(-139.2)"><tspan x="0" y="0">’</tspan></text>
  <text class="cls-6" transform="translate(147.56 540.52) rotate(-135.79)"><tspan x="0" y="0"> </tspan></text>
  <text class="cls-6" transform="translate(136.7 531.35) rotate(-129.47)"><tspan x="0" y="0">b</tspan></text>
  <text class="cls-6" transform="translate(106.16 495.76) rotate(-118.28)"><tspan x="0" y="0">o</tspan></text>
  <text class="cls-6" transform="translate(76.71 441.08) rotate(-105.89)"><tspan x="0" y="0">a</tspan></text>
  <text class="cls-6" transform="translate(61.99 384.39) rotate(-98.39)"><tspan x="0" y="0"> </tspan></text>
  <text class="cls-6" transform="translate(59.82 369.77) rotate(-95.35)"><tspan x="0" y="0"> </tspan></text>
  <text class="cls-6" transform="translate(58.43 355.09) rotate(-92.34)"><tspan x="0" y="0"> </tspan></text>
  <text class="cls-6" transform="translate(56.62 341.03) rotate(-85.54)"><tspan x="0" y="0">d</tspan></text>
  <text class="cls-6" transform="translate(61.65 288.48) rotate(-77.8)"><tspan x="0" y="0">’</tspan></text>
  <text class="cls-6" transform="translate(66.08 268.13) rotate(-74.35)"><tspan x="0" y="0"> </tspan></text>
  <text class="cls-6" transform="translate(68.94 254.22) rotate(-67.95)"><tspan x="0" y="0">b</tspan></text>
  <text class="cls-6" transform="translate(85.67 210.4) rotate(-56.71)"><tspan x="0" y="0">o</tspan></text>
  <text class="cls-6" transform="translate(119.74 158.49) rotate(-44.46)"><tspan x="0" y="0">a</tspan></text>
  <text class="cls-6" transform="translate(162.51 118.41) rotate(-37.02)"><tspan x="0" y="0"> </tspan></text>
  <text class="cls-6" transform="translate(174.29 109.51) rotate(-33.99)"><tspan x="0" y="0"> </tspan></text>
  <text class="cls-6" transform="translate(186.52 101.24) rotate(-30.95)"><tspan x="0" y="0"> </tspan></text>
</svg>