<svg xmlns="http://www.w3.org/2000/svg" viewBox="0 0 1440 320"><path fill="#a6b3c8" fill-opacity="1" d="M0,96L12,80C24,64,48,32,72,37.3C96,43,120,85,144,90.7C168,96,192,64,216,80C240,96,264,160,288,160C312,160,336,96,360,85.3C384,75,408,117,432,144C456,171,480,181,504,202.7C528,224,552,256,576,261.3C600,267,624,245,648,229.3C672,213,696,203,720,181.3C744,160,768,128,792,106.7C816,85,840,75,864,58.7C888,43,912,21,936,53.3C960,85,984,171,1008,202.7C1032,235,1056,213,1080,213.3C1104,213,1128,235,1152,218.7C1176,203,1200,149,1224,117.3C1248,85,1272,75,1296,80C1320,85,1344,107,1368,122.7C1392,139,1416,149,1428,154.7L1440,160L1440,0L1428,0C1416,0,1392,0,1368,0C1344,0,1320,0,1296,0C1272,0,1248,0,1224,0C1200,0,1176,0,1152,0C1128,0,1104,0,1080,0C1056,0,1032,0,1008,0C984,0,960,0,936,0C912,0,888,0,864,0C840,0,816,0,792,0C768,0,744,0,720,0C696,0,672,0,648,0C624,0,600,0,576,0C552,0,528,0,504,0C480,0,456,0,432,0C408,0,384,0,360,0C336,0,312,0,288,0C264,0,240,0,216,0C192,0,168,0,144,0C120,0,96,0,72,0C48,0,24,0,12,0L0,0Z"></path></svg>
